<?xml version="1.0" encoding="utf-8"?>
<!-- Generator: Adobe Illustrator 25.4.1, SVG Export Plug-In . SVG Version: 6.00 Build 0)  -->
<svg version="1.1" id="Capa_1" xmlns="http://www.w3.org/2000/svg" xmlns:xlink="http://www.w3.org/1999/xlink" x="0px" y="0px"
	 viewBox="0 0 1172 1080" style="enable-background:new 0 0 1172 1080;" xml:space="preserve">
<style type="text/css">
	.st0{fill:#01589F;}
	.st1{fill:#52BAAE;}
	.st2{fill:#7DA2C6;}
	.st3{fill:#8FB8EA;}
</style>
<g>
	<path class="st0" d="M689.13,181.16c-31.75-0.28-61.21,8.18-89.36,21.53c-19.38,9.19-37.2,8.3-57,0.29
		c-21.72-8.78-44.5-16.38-67.54-20.19c-86.4-14.29-162.7,58.26-152.87,145.23c9.87,87.37,35.54,170.59,71.88,250.38
		c5.88,12.92,17.12,24.92,28.75,33.4c33.18,24.19,77.49,20.1,107.15-8.43c14.47-13.92,27.84-28.98,43.07-44.96
		c14.67,15.07,27.18,28.5,40.29,41.31c45.9,44.84,116.15,32.01,141.32-26.81c33.67-78.68,56.19-160.67,65.67-245.83
		C829.12,249.58,767.18,181.85,689.13,181.16z M578.78,514.43c-1.01,0.86-2.75,2.32-3.71,2.94c-0.94-0.64-2.58-2.13-3.26-2.75
		c-20.79-18.9-37.65-34.7-53.05-49.69c-8.72-8.49-16.88-18.03-24.77-27.26l-0.28-0.33c-8.96-10.48-13.95-21.37-15.25-33.28
		c-1.91-17.51,8.75-36.67,24.81-44.57c5.85-2.88,11.98-4.29,18.04-4.29c10.7,0,21.21,4.39,29.65,12.85
		c6.61,6.62,13.14,13.59,19.46,20.34c0,0,0.04,0.04,0.11,0.12c2.82,3.01,7.64,2.94,10.35-0.18l12.85-14.75
		c6.94-7.28,13.9-13.76,23.24-16.56c11.48-3.44,24.05-1.6,34.49,5.06c10.86,6.92,18.14,18.14,19.97,30.77
		c2.24,15.44-2.2,29.64-13.21,42.2c-17,19.4-34.66,37.61-49.71,52.87c-8.4,8.52-17.82,16.47-26.94,24.16L578.78,514.43z
		 M788.9,331.86c-10.32,78.93-31.49,155.12-62.36,228.49c-10.62,25.24-32.03,38.35-58.1,33.96c-10.94-1.84-22.92-7.55-30.92-15.19
		l-46.72-40.34c2.13-1.52,4.45-3.29,7.02-5.32c27.12-21.46,53.87-48.23,81.79-81.83c15.68-18.88,21.97-39.48,18.69-61.22
		c-4.31-28.53-20.46-48.6-46.7-58.05c-25.7-9.25-50.26-3.63-71.04,16.26c-1.86,1.78-3.64,3.64-5.48,5.59
		c-1.4-1.51-2.73-2.94-4.07-4.35c-17.12-17.97-41.44-25.41-65.09-19.89c-24.4,5.7-43.7,24.24-51.62,49.61
		c-7.71,24.68-2.03,49.58,16.42,72.01c27.26,33.14,54.01,59.92,81.78,81.87c1.12,0.88,2.16,1.69,3.19,2.48
		c-19.24,18.48-43.55,42.31-59.15,53.25c-23.13,16.21-57.36,6.73-71.19-19.08c-11.9-22.21-21.08-46.1-29.43-69.96
		c-19.19-54.82-34.96-110.6-42.12-168.49c-9.18-74.19,48-130.02,121.75-117.71c19.21,3.21,37.74,10.51,56.58,15.94
		c-0.19,2.35-0.15,1.87-0.34,4.22c-8.18,1.02-16.35,2.15-24.54,3c-3.44,0.36-6.95,0.03-10.42,0.16
		c-10.77,0.4-17.42,6.17-17.61,15.17c-0.18,8.93,6.62,15.57,17.15,15.64c27.74,0.2,54.64-3.77,79.84-16.42
		c21.1-10.59,42-21.81,63.85-30.59c30.08-12.1,61.06-13.28,91.14,0.75C773.41,241.51,795.39,282.22,788.9,331.86z"/>
	<g>
		<g>
			<path class="st0" d="M319.89,814.1v6.18h-12.3v40.03h-7.58v-40.03h-12.37v-6.18H319.89z"/>
			<path class="st0" d="M360.25,823.67v36.64h-7.58v-4.32c-1.2,1.51-2.76,2.69-4.69,3.56c-1.93,0.86-3.98,1.3-6.15,1.3
				c-2.88,0-5.46-0.6-7.75-1.8c-2.28-1.2-4.08-2.97-5.39-5.32c-1.31-2.35-1.96-5.19-1.96-8.51v-21.54h7.51v20.41
				c0,3.28,0.82,5.8,2.46,7.55c1.64,1.75,3.88,2.63,6.72,2.63c2.84,0,5.09-0.88,6.75-2.63c1.66-1.75,2.49-4.27,2.49-7.55v-20.41
				H360.25z"/>
			<path class="st0" d="M386.34,832.05c1.53-2.84,3.61-5.04,6.25-6.62c2.64-1.57,5.55-2.36,8.74-2.36c2.88,0,5.4,0.57,7.55,1.7
				c2.15,1.13,3.87,2.54,5.15,4.22v-5.32h7.65v36.64h-7.65v-5.45c-1.29,1.73-3.04,3.17-5.25,4.32c-2.22,1.15-4.74,1.73-7.58,1.73
				c-3.15,0-6.03-0.81-8.64-2.43c-2.62-1.62-4.69-3.88-6.22-6.78s-2.29-6.19-2.29-9.87C384.05,838.15,384.81,834.89,386.34,832.05z
				 M412.47,835.38c-1.04-1.86-2.4-3.28-4.09-4.26c-1.69-0.97-3.5-1.46-5.45-1.46c-1.95,0-3.77,0.48-5.45,1.43
				c-1.69,0.95-3.05,2.35-4.09,4.19c-1.04,1.84-1.56,4.02-1.56,6.55s0.52,4.74,1.56,6.65c1.04,1.91,2.42,3.36,4.12,4.35
				c1.71,1,3.51,1.5,5.42,1.5c1.95,0,3.77-0.49,5.45-1.46c1.68-0.97,3.05-2.4,4.09-4.29c1.04-1.88,1.56-4.09,1.56-6.62
				S413.52,837.24,412.47,835.38z"/>
			<path class="st0" d="M438.77,811.11v49.2h-7.58v-49.2H438.77z"/>
			<path class="st0" d="M448.68,817.42c-0.93-0.93-1.4-2.08-1.4-3.46s0.47-2.53,1.4-3.46s2.08-1.4,3.46-1.4
				c1.33,0,2.46,0.47,3.39,1.4c0.93,0.93,1.4,2.08,1.4,3.46s-0.47,2.53-1.4,3.46c-0.93,0.93-2.06,1.4-3.39,1.4
				C450.76,818.82,449.61,818.35,448.68,817.42z M455.86,823.67v36.64h-7.58v-36.64H455.86z"/>
			<path class="st0" d="M465.13,832.05c1.53-2.84,3.61-5.04,6.25-6.62c2.64-1.57,5.55-2.36,8.74-2.36c2.88,0,5.4,0.57,7.55,1.7
				c2.15,1.13,3.87,2.54,5.15,4.22v-5.32h7.65v36.64h-7.65v-5.45c-1.29,1.73-3.04,3.17-5.25,4.32c-2.22,1.15-4.74,1.73-7.58,1.73
				c-3.15,0-6.03-0.81-8.64-2.43c-2.62-1.62-4.69-3.88-6.22-6.78s-2.29-6.19-2.29-9.87C462.84,838.15,463.6,834.89,465.13,832.05z
				 M491.26,835.38c-1.04-1.86-2.4-3.28-4.09-4.26c-1.69-0.97-3.5-1.46-5.45-1.46c-1.95,0-3.77,0.48-5.45,1.43
				c-1.69,0.95-3.05,2.35-4.09,4.19c-1.04,1.84-1.56,4.02-1.56,6.55s0.52,4.74,1.56,6.65c1.04,1.91,2.42,3.36,4.12,4.35
				c1.71,1,3.51,1.5,5.42,1.5c1.95,0,3.77-0.49,5.45-1.46c1.68-0.97,3.05-2.4,4.09-4.29c1.04-1.88,1.56-4.09,1.56-6.62
				S492.31,837.24,491.26,835.38z"/>
			<path class="st0" d="M509.75,832.05c1.53-2.84,3.61-5.04,6.25-6.62c2.64-1.57,5.57-2.36,8.81-2.36c2.39,0,4.75,0.52,7.08,1.56
				c2.33,1.04,4.18,2.43,5.55,4.16v-17.69h7.65v49.2h-7.65v-5.52c-1.24,1.77-2.96,3.24-5.15,4.39c-2.19,1.15-4.71,1.73-7.55,1.73
				c-3.19,0-6.11-0.81-8.74-2.43c-2.64-1.62-4.72-3.88-6.25-6.78s-2.29-6.19-2.29-9.87C507.45,838.15,508.22,834.89,509.75,832.05z
				 M535.88,835.38c-1.04-1.86-2.4-3.28-4.09-4.26c-1.69-0.97-3.5-1.46-5.45-1.46c-1.95,0-3.77,0.48-5.45,1.43
				c-1.69,0.95-3.05,2.35-4.09,4.19c-1.04,1.84-1.56,4.02-1.56,6.55s0.52,4.74,1.56,6.65c1.04,1.91,2.42,3.36,4.12,4.35
				c1.71,1,3.51,1.5,5.42,1.5c1.95,0,3.77-0.49,5.45-1.46c1.68-0.97,3.05-2.4,4.09-4.29c1.04-1.88,1.56-4.09,1.56-6.62
				S536.92,837.24,535.88,835.38z"/>
			<path class="st0" d="M561.11,858.55c-2.79-1.57-4.99-3.79-6.58-6.65s-2.39-6.17-2.39-9.94c0-3.72,0.82-7.03,2.46-9.91
				c1.64-2.88,3.88-5.1,6.72-6.65c2.84-1.55,6.01-2.33,9.51-2.33c3.5,0,6.67,0.78,9.51,2.33c2.84,1.55,5.08,3.77,6.72,6.65
				c1.64,2.88,2.46,6.18,2.46,9.91s-0.84,7.03-2.53,9.91c-1.69,2.88-3.98,5.11-6.88,6.68c-2.9,1.57-6.11,2.36-9.61,2.36
				C567.03,860.91,563.91,860.12,561.11,858.55z M575.97,852.93c1.71-0.93,3.09-2.33,4.16-4.19c1.06-1.86,1.6-4.12,1.6-6.78
				c0-2.66-0.51-4.91-1.53-6.75c-1.02-1.84-2.37-3.22-4.06-4.16c-1.69-0.93-3.5-1.4-5.45-1.4c-1.95,0-3.76,0.47-5.42,1.4
				c-1.66,0.93-2.98,2.32-3.96,4.16c-0.98,1.84-1.46,4.09-1.46,6.75c0,3.95,1.01,6.99,3.03,9.14c2.02,2.15,4.55,3.22,7.61,3.22
				C572.44,854.32,574.27,853.86,575.97,852.93z"/>
			<path class="st0" d="M613.14,832.05c1.53-2.84,3.61-5.04,6.25-6.62c2.64-1.57,5.57-2.36,8.81-2.36c2.39,0,4.75,0.52,7.08,1.56
				c2.33,1.04,4.18,2.43,5.55,4.16v-17.69h7.65v49.2h-7.65v-5.52c-1.24,1.77-2.96,3.24-5.15,4.39c-2.19,1.15-4.71,1.73-7.55,1.73
				c-3.19,0-6.11-0.81-8.74-2.43c-2.64-1.62-4.72-3.88-6.25-6.78s-2.29-6.19-2.29-9.87C610.85,838.15,611.61,834.89,613.14,832.05z
				 M639.27,835.38c-1.04-1.86-2.4-3.28-4.09-4.26c-1.69-0.97-3.5-1.46-5.45-1.46c-1.95,0-3.77,0.48-5.45,1.43
				c-1.69,0.95-3.05,2.35-4.09,4.19c-1.04,1.84-1.56,4.02-1.56,6.55s0.52,4.74,1.56,6.65c1.04,1.91,2.42,3.36,4.12,4.35
				c1.71,1,3.51,1.5,5.42,1.5c1.95,0,3.77-0.49,5.45-1.46c1.68-0.97,3.05-2.4,4.09-4.29c1.04-1.88,1.56-4.09,1.56-6.62
				S640.31,837.24,639.27,835.38z"/>
			<path class="st0" d="M691.3,844.82h-27.99c0.22,2.93,1.31,5.28,3.26,7.05c1.95,1.77,4.34,2.66,7.18,2.66
				c4.08,0,6.96-1.71,8.64-5.12h8.18c-1.11,3.37-3.11,6.13-6.02,8.28c-2.9,2.15-6.51,3.22-10.8,3.22c-3.5,0-6.64-0.79-9.41-2.36
				c-2.77-1.57-4.94-3.79-6.52-6.65c-1.57-2.86-2.36-6.17-2.36-9.94c0-3.77,0.76-7.08,2.29-9.94s3.68-5.06,6.45-6.62
				c2.77-1.55,5.95-2.33,9.54-2.33c3.46,0,6.54,0.75,9.24,2.26c2.7,1.51,4.81,3.62,6.32,6.35c1.51,2.73,2.26,5.86,2.26,9.41
				C691.57,842.47,691.48,843.71,691.3,844.82z M683.65,838.7c-0.04-2.79-1.04-5.03-2.99-6.72c-1.95-1.68-4.37-2.53-7.25-2.53
				c-2.62,0-4.85,0.83-6.72,2.49s-2.97,3.91-3.32,6.75H683.65z"/>
			<path class="st0" d="M724.78,824.87c2.28,1.2,4.07,2.97,5.35,5.32c1.29,2.35,1.93,5.19,1.93,8.51v21.61h-7.51v-20.48
				c0-3.28-0.82-5.79-2.46-7.55c-1.64-1.75-3.88-2.63-6.72-2.63c-2.84,0-5.09,0.88-6.75,2.63c-1.66,1.75-2.49,4.27-2.49,7.55v20.48
				h-7.58v-36.64h7.58v4.19c1.24-1.51,2.83-2.68,4.75-3.52c1.93-0.84,3.98-1.26,6.15-1.26
				C719.91,823.07,722.49,823.67,724.78,824.87z"/>
			<path class="st0" d="M750.08,829.86v20.28c0,1.37,0.32,2.36,0.96,2.96c0.64,0.6,1.74,0.9,3.29,0.9h4.65v6.32H753
				c-3.41,0-6.03-0.8-7.85-2.39c-1.82-1.6-2.73-4.19-2.73-7.78v-20.28h-4.32v-6.18h4.32v-9.11h7.65v9.11h8.91v6.18H750.08z"/>
			<path class="st0" d="M765.27,832.05c1.53-2.84,3.61-5.04,6.25-6.62c2.64-1.57,5.55-2.36,8.74-2.36c2.88,0,5.4,0.57,7.55,1.7
				c2.15,1.13,3.87,2.54,5.15,4.22v-5.32h7.65v36.64h-7.65v-5.45c-1.29,1.73-3.04,3.17-5.25,4.32c-2.22,1.15-4.74,1.73-7.58,1.73
				c-3.15,0-6.03-0.81-8.64-2.43c-2.62-1.62-4.69-3.88-6.22-6.78s-2.29-6.19-2.29-9.87C762.97,838.15,763.74,834.89,765.27,832.05z
				 M791.4,835.38c-1.04-1.86-2.4-3.28-4.09-4.26c-1.69-0.97-3.5-1.46-5.45-1.46c-1.95,0-3.77,0.48-5.45,1.43
				c-1.69,0.95-3.05,2.35-4.09,4.19c-1.04,1.84-1.56,4.02-1.56,6.55s0.52,4.74,1.56,6.65c1.04,1.91,2.42,3.36,4.12,4.35
				c1.71,1,3.51,1.5,5.42,1.5c1.95,0,3.77-0.49,5.45-1.46c1.68-0.97,3.05-2.4,4.09-4.29c1.04-1.88,1.56-4.09,1.56-6.62
				S792.44,837.24,791.4,835.38z"/>
			<path class="st0" d="M817.7,811.11v49.2h-7.58v-49.2H817.7z"/>
		</g>
	</g>
	<path class="st0" d="M210.22,679.65c-5.25-5.3-11.52-9.45-18.63-12.32c-7.1-2.87-15.07-4.33-23.7-4.33h-26.55
		c-2.67,0-4.96,0.9-6.8,2.68c-1.86,1.8-2.8,4.13-2.8,6.92v99.32c0,2.68,0.93,4.98,2.78,6.83c1.85,1.84,4.14,2.78,6.83,2.78h26.55
		c8.63,0,16.6-1.46,23.7-4.33c7.11-2.87,13.38-7.02,18.63-12.32c5.25-5.3,9.35-11.65,12.17-18.86c2.82-7.19,4.24-15.21,4.24-23.83
		c0-8.62-1.43-16.61-4.24-23.76C219.56,691.27,215.47,684.95,210.22,679.65z M208.01,722.19c0,8.13-1.74,15.44-5.18,21.71
		c-3.43,6.26-8.2,11.24-14.17,14.8c-5.97,3.56-12.96,5.37-20.77,5.37h-16.95v-83.63h16.95c7.82,0,14.81,1.78,20.78,5.3
		c5.97,3.52,10.73,8.45,14.16,14.66C206.27,706.63,208.01,713.96,208.01,722.19z"/>
	<path class="st0" d="M302.27,702.09c-5.77-3.55-12.73-5.35-20.69-5.35c-8.04,0-15.29,1.84-21.53,5.48
		c-6.25,3.64-11.21,8.73-14.75,15.13c-3.52,6.38-5.31,13.83-5.31,22.15c0,8.24,1.89,15.66,5.62,22.05
		c3.74,6.4,8.97,11.48,15.57,15.11c6.57,3.62,14.17,5.45,22.59,5.45c4.7,0,9.67-0.87,14.79-2.6c5.13-1.73,9.5-4.01,12.97-6.76
		c2.75-2.1,3.21-4.54,3.12-6.23c-0.13-2.3-1.24-4.39-3.34-6.24c-1.65-1.39-3.6-2.08-5.81-2.01c-2.11,0.06-4.09,0.76-5.89,2.08
		c-1.79,1.34-4.21,2.56-7.18,3.61c-2.95,1.04-5.86,1.57-8.66,1.57c-5.2,0-9.86-1.15-13.84-3.41c-3.98-2.26-7.13-5.37-9.39-9.25
		c-1.13-1.94-1.98-4.04-2.55-6.27h53.36c2.48,0,4.57-0.8,6.21-2.39c1.67-1.6,2.51-3.64,2.51-6.05c0-7.99-1.52-15.16-4.53-21.33
		C312.51,710.61,308.04,705.65,302.27,702.09z M260.03,725.91c1.88-3.89,4.66-6.99,8.28-9.23c3.63-2.24,8.09-3.37,13.26-3.37
		c4.47,0,8.3,1.03,11.38,3.05c3.1,2.04,5.53,4.86,7.23,8.37c0.92,1.91,1.61,3.98,2.07,6.19H258.2
		C258.66,729.16,259.27,727.48,260.03,725.91z"/>
	<path class="st0" d="M395.11,701.16c-5.6-3.03-12.01-4.57-19.06-4.57c-6.76,0-12.95,1.51-18.41,4.5c-1.72,0.94-3.33,1.99-4.83,3.15
		c-0.39-1.66-1.17-3.1-2.36-4.29c-1.75-1.75-4.05-2.63-6.82-2.63c-2.67,0-4.94,0.88-6.73,2.61c-1.81,1.75-2.73,4.05-2.73,6.85v65.43
		c0,2.69,0.91,4.96,2.71,6.75c1.79,1.8,4.06,2.71,6.75,2.71c2.79,0,5.1-0.92,6.85-2.73c1.73-1.79,2.61-4.06,2.61-6.73v-41.37
		c0-3.24,0.84-6.01,2.57-8.47c1.76-2.5,4.17-4.53,7.19-6.04c3.03-1.52,6.49-2.29,10.27-2.29c4.17,0,7.9,0.8,11.08,2.36
		c3.1,1.53,5.61,3.91,7.46,7.07c1.87,3.2,2.81,7.45,2.81,12.65v36.09c0,2.69,0.91,4.96,2.7,6.75c1.79,1.8,4.07,2.71,6.75,2.71
		c2.69,0,4.96-0.91,6.75-2.71c1.8-1.8,2.71-4.07,2.71-6.75v-36.09c0-8.42-1.64-15.65-4.87-21.49
		C405.26,708.75,400.75,704.21,395.11,701.16z"/>
	<path class="st0" d="M466.71,762.9h-4.99c-2.53,0-4.62-1.06-6.39-3.23c-1.87-2.3-2.78-5.1-2.78-8.58v-34.26h10.49
		c2.56,0,4.68-0.77,6.33-2.29c1.69-1.56,2.54-3.53,2.54-5.85c0-2.52-0.86-4.59-2.54-6.15c-1.64-1.52-3.77-2.28-6.33-2.28h-10.49
		v-19.15c0-2.68-0.89-4.93-2.63-6.68c-1.75-1.75-4-2.63-6.68-2.63c-2.69,0-4.93,0.89-6.68,2.63c-1.75,1.75-2.63,3.99-2.63,6.68
		v19.15h-4.77c-2.56,0-4.69,0.77-6.33,2.28c-1.69,1.56-2.54,3.63-2.54,6.15c0,2.33,0.86,4.3,2.54,5.85
		c1.64,1.52,3.77,2.29,6.33,2.29h4.77v34.26c0,5.68,1.21,10.87,3.6,15.44c2.4,4.59,5.74,8.28,9.93,10.95
		c4.21,2.69,9.01,4.05,14.27,4.05h2.64c3.01,0,5.54-0.85,7.51-2.52c2.07-1.76,3.12-4.04,3.12-6.79c0-2.64-0.79-4.86-2.34-6.6
		C471.05,763.81,469.05,762.9,466.71,762.9z"/>
	<path class="st0" d="M563.41,717.67c-3.72-6.43-8.83-11.58-15.16-15.31c-6.35-3.73-13.59-5.63-21.54-5.63
		c-7.95,0-15.22,1.89-21.61,5.62c-6.39,3.73-11.51,8.88-15.24,15.31c-3.73,6.44-5.62,13.78-5.62,21.82c0,8.02,1.73,15.32,5.15,21.69
		c3.42,6.39,8.17,11.53,14.11,15.26c5.96,3.76,12.78,5.66,20.27,5.66c7.49,0,14.31-1.9,20.27-5.66c2.19-1.37,4.21-2.94,6.07-4.69
		v0.45c0,2.69,0.91,4.96,2.7,6.75c1.79,1.8,4.07,2.71,6.75,2.71c2.68,0,4.96-0.91,6.75-2.71c1.79-1.8,2.7-4.07,2.7-6.75V738.2
		l-0.02-0.01C568.82,730.66,566.94,723.76,563.41,717.67z M539.03,761.65c-3.58,2.19-7.72,3.3-12.32,3.3
		c-4.5,0-8.63-1.11-12.25-3.31c-3.65-2.2-6.57-5.26-8.68-9.09c-2.12-3.84-3.2-8.23-3.2-13.05c0-4.92,1.08-9.36,3.2-13.2
		c2.12-3.83,5.04-6.89,8.68-9.09c3.63-2.2,7.75-3.31,12.25-3.31c4.59,0,8.74,1.11,12.32,3.3c3.59,2.2,6.47,5.26,8.54,9.08
		c2.08,3.85,3.14,8.29,3.14,13.22c0,4.83-1.06,9.22-3.14,13.07C545.49,756.39,542.62,759.45,539.03,761.65z"/>
	<path class="st0" d="M647.28,701.16c-5.6-3.03-12.01-4.57-19.06-4.57c-6.76,0-12.95,1.51-18.41,4.5c-1.72,0.94-3.33,1.99-4.83,3.15
		c-0.39-1.66-1.17-3.1-2.36-4.29c-1.75-1.75-4.05-2.63-6.82-2.63c-2.67,0-4.94,0.88-6.73,2.61c-1.81,1.75-2.73,4.05-2.73,6.85v65.43
		c0,2.69,0.91,4.96,2.7,6.75c1.79,1.8,4.07,2.71,6.75,2.71c2.79,0,5.1-0.92,6.85-2.73c1.73-1.79,2.61-4.06,2.61-6.73v-41.37
		c0-3.23,0.84-6.01,2.57-8.47c1.76-2.5,4.17-4.53,7.19-6.04c3.03-1.52,6.49-2.29,10.27-2.29c4.17,0,7.9,0.8,11.08,2.36
		c3.1,1.53,5.61,3.91,7.46,7.07c1.87,3.2,2.81,7.45,2.81,12.65v36.09c0,2.69,0.91,4.96,2.7,6.75c1.79,1.8,4.07,2.71,6.75,2.71
		c2.69,0,4.96-0.91,6.75-2.71c1.8-1.8,2.71-4.07,2.71-6.75v-36.09c0-8.42-1.64-15.65-4.87-21.49
		C657.44,708.75,652.93,704.21,647.28,701.16z"/>
	<path class="st0" d="M760.42,717.67c-3.72-6.43-8.83-11.58-15.16-15.31c-6.35-3.73-13.59-5.63-21.54-5.63
		c-7.95,0-15.22,1.89-21.61,5.62c-6.39,3.73-11.51,8.88-15.24,15.31c-3.73,6.44-5.62,13.78-5.62,21.82c0,8.02,1.73,15.32,5.15,21.69
		c3.42,6.39,8.17,11.53,14.11,15.26c5.96,3.76,12.78,5.66,20.27,5.66c7.49,0,14.31-1.9,20.27-5.66c2.19-1.37,4.21-2.94,6.07-4.69
		v0.45c0,2.69,0.91,4.96,2.7,6.75c1.79,1.8,4.07,2.71,6.75,2.71c2.68,0,4.96-0.91,6.75-2.71c1.79-1.8,2.7-4.07,2.7-6.75V738.2
		l-0.02-0.01C765.83,730.66,763.95,723.76,760.42,717.67z M736.04,761.65c-3.58,2.19-7.72,3.3-12.32,3.3
		c-4.5,0-8.63-1.11-12.25-3.31c-3.65-2.2-6.57-5.26-8.68-9.09c-2.12-3.84-3.2-8.23-3.2-13.05c0-4.92,1.08-9.36,3.2-13.2
		c2.12-3.83,5.04-6.89,8.68-9.09c3.63-2.2,7.75-3.31,12.25-3.31c4.59,0,8.74,1.11,12.32,3.3c3.59,2.2,6.47,5.26,8.54,9.08
		c2.08,3.85,3.14,8.29,3.14,13.22c0,4.83-1.06,9.22-3.14,13.07C742.5,756.39,739.63,759.45,736.04,761.65z"/>
	<path class="st1" d="M846.9,668.1c-5.95-3.38-12.84-5.1-20.49-5.1h-29.34c-2.67,0-4.96,0.9-6.8,2.68c-1.86,1.8-2.8,4.13-2.8,6.92
		v99.32c0,2.68,0.94,4.98,2.78,6.83c1.84,1.84,4.14,2.78,6.82,2.78c2.79,0,5.12-0.94,6.92-2.8c1.78-1.84,2.68-4.13,2.68-6.8v-30.15
		h19.73c7.64,0,14.53-1.66,20.47-4.94c5.97-3.29,10.69-7.94,14.04-13.81c3.34-5.85,5.03-12.6,5.03-20.05
		c0-7.73-1.69-14.7-5.02-20.69C857.58,676.26,852.86,671.49,846.9,668.1z M837.31,721.06c-3.1,1.77-6.77,2.67-10.9,2.67h-19.73
		v-42.7h19.73c4.11,0,7.77,0.94,10.87,2.8c3.1,1.86,5.58,4.45,7.35,7.69c1.78,3.26,2.69,7.11,2.69,11.45c0,4.03-0.9,7.65-2.67,10.76
		C842.87,716.82,840.4,719.29,837.31,721.06z"/>
	<path class="st1" d="M931.87,699.63c-3.25-2.15-7.9-3.19-14.22-3.19c-6.18,0-11.94,1.47-17.1,4.36c-2.06,1.15-3.96,2.47-5.69,3.95
		c-0.28-2.09-1.05-3.77-2.29-5.02c-1.6-1.6-3.93-2.41-6.9-2.41c-2.88,0-5.18,0.84-6.83,2.49c-1.65,1.65-2.49,3.95-2.49,6.83v65.57
		c0,2.99,0.85,5.32,2.51,6.92c1.64,1.58,3.93,2.39,6.8,2.39c2.99,0,5.32-0.85,6.93-2.51c1.58-1.65,2.39-3.93,2.39-6.8v-42.84
		c0-4,1.23-7.19,3.76-9.76c2.59-2.64,6.23-4.48,10.82-5.47c4.69-1.01,10.1-0.91,16.01,0.29c1.53,0.35,2.98,0.41,4.32,0.17
		c1.43-0.26,2.71-0.88,3.82-1.86c1.15-1.02,1.93-2.44,2.29-4.14C936.62,706.17,936.42,702.64,931.87,699.63z"/>
	<path class="st1" d="M1015.97,717.32c-3.63-6.4-8.69-11.48-15.04-15.12c-6.34-3.63-13.68-5.47-21.81-5.47
		c-8.23,0-15.62,1.84-21.96,5.47c-6.35,3.63-11.41,8.72-15.04,15.12c-3.63,6.38-5.46,13.84-5.46,22.17c0,8.24,1.84,15.65,5.46,22.03
		c3.63,6.4,8.69,11.48,15.04,15.12c6.34,3.63,13.72,5.47,21.96,5.47c8.23,0,15.62-1.84,21.96-5.47c6.35-3.63,11.39-8.72,14.97-15.13
		c3.57-6.38,5.39-13.79,5.39-22.02C1021.44,731.17,1019.6,723.71,1015.97,717.32z M979.12,764.95c-4.7,0-8.9-1.09-12.48-3.24
		c-3.59-2.15-6.46-5.16-8.53-8.94c-2.08-3.79-3.13-8.26-3.13-13.28c0-5.02,1.06-9.52,3.14-13.36c2.07-3.82,4.93-6.85,8.52-9
		c3.58-2.15,7.78-3.24,12.48-3.24c4.7,0,8.9,1.09,12.48,3.24c3.58,2.15,6.42,5.17,8.44,8.98c2.04,3.85,3.07,8.35,3.07,13.38
		c0,5.02-1.03,9.5-3.07,13.3c-2.02,3.77-4.86,6.77-8.44,8.92C988.01,763.86,983.81,764.95,979.12,764.95z"/>
	<path class="st2" d="M469.54,681.69h-11.39c-1.22,0-2.21-0.99-2.21-2.21v-4.8c0-1.22,0.99-2.21,2.21-2.21h11.39
		c1.22,0,2.21,0.99,2.21,2.21v4.8C471.75,680.7,470.76,681.69,469.54,681.69z"/>
	<path class="st3" d="M469.54,694.86h-11.39c-1.22,0-2.21-0.99-2.21-2.21v-4.8c0-1.22,0.99-2.21,2.21-2.21h11.39
		c1.22,0,2.21,0.99,2.21,2.21v4.8C471.75,693.87,470.76,694.86,469.54,694.86z"/>
	<path class="st3" d="M979.37,819.38c-21.01,0-42.02-8-58.01-23.99c-3.86-3.86-3.86-10.12,0-13.97c3.86-3.86,10.12-3.86,13.98,0
		c24.28,24.28,63.79,24.28,88.07,0c3.86-3.86,10.12-3.86,13.98,0c3.86,3.86,3.86,10.12,0,13.97
		C1021.39,811.39,1000.38,819.38,979.37,819.38z"/>
</g>
</svg>
