<?xml version="1.0" standalone="no"?>
<!DOCTYPE svg PUBLIC "-//W3C//DTD SVG 20010904//EN"
 "http://www.w3.org/TR/2001/REC-SVG-20010904/DTD/svg10.dtd">
<svg version="1.0" xmlns="http://www.w3.org/2000/svg"
 width="217.000000pt" height="217.000000pt" viewBox="0 0 217.000000 217.000000"
 preserveAspectRatio="xMidYMid meet">

<g transform="translate(0.000000,217.000000) scale(0.100000,-0.100000)"
fill="#000000" stroke="none">
<path d="M936 2160 c-314 -50 -591 -226 -755 -480 -390 -603 -109 -1402 570
-1623 120 -39 211 -50 381 -45 127 5 168 10 243 32 190 56 348 151 482 289
130 134 213 276 270 462 25 84 27 102 28 285 0 214 -8 264 -68 410 -135 330
-410 566 -758 650 -97 24 -303 34 -393 20z m514 -445 c80 -41 116 -150 107
-325 -13 -259 -124 -521 -250 -587 -101 -52 -197 15 -197 137 0 64 18 109 59
143 46 39 64 36 43 -5 -18 -37 -20 -118 -3 -160 38 -97 161 62 218 281 32 122
38 323 11 383 -24 54 -45 55 -146 10 -108 -50 -131 -55 -184 -43 -54 12 -98
58 -98 102 0 26 3 30 18 23 49 -22 118 -16 208 20 98 38 167 45 214 21z m-587
-20 c18 -8 64 -42 102 -75 90 -78 140 -102 210 -102 52 -1 55 -2 49 -22 -3
-11 -19 -34 -36 -50 -26 -24 -37 -27 -70 -23 -57 8 -133 48 -209 110 -36 30
-75 59 -86 65 -94 50 -152 -307 -84 -510 37 -108 134 -225 180 -216 33 7 56
69 56 156 l0 83 32 -34 c129 -142 -1 -372 -164 -289 -85 44 -183 188 -217 318
-48 191 -15 443 72 545 52 60 103 74 165 44z m-350 -1154 c13 -5 27 -17 31
-26 6 -15 1 -17 -40 -10 -32 4 -44 3 -39 -4 3 -6 14 -11 23 -11 27 0 62 -29
62 -50 0 -24 -37 -50 -70 -50 -31 0 -70 26 -70 46 0 17 31 19 47 3 6 -6 19 -9
29 -6 18 4 18 4 -1 11 -53 19 -70 33 -70 56 0 16 9 29 25 37 30 15 41 16 73 4z
m147 -56 c0 -47 3 -55 19 -55 23 0 31 19 31 71 0 35 2 39 26 39 26 0 26 -1 22
-57 -4 -43 -10 -61 -28 -75 -27 -22 -68 -23 -98 -2 -19 13 -22 24 -22 75 0 56
1 59 25 59 24 0 25 -3 25 -55z m288 43 c15 -15 16 -50 1 -65 -8 -8 -8 -17 0
-31 16 -30 13 -42 -9 -42 -13 0 -28 12 -38 30 -22 38 -32 38 -32 -1 0 -26 -3
-30 -22 -27 -21 3 -23 9 -26 76 l-3 72 59 0 c32 0 63 -5 70 -12z m194 -5 c22
-20 24 -85 3 -107 -17 -17 -72 -30 -102 -24 -15 3 -18 14 -21 76 l-3 72 52 0
c35 0 59 -6 71 -17z m208 2 c0 -10 -10 -15 -34 -15 -19 0 -38 -4 -41 -10 -4
-6 8 -10 29 -10 29 0 36 -4 36 -20 0 -16 -7 -20 -35 -20 -19 0 -35 -4 -35 -10
0 -5 21 -10 46 -10 38 0 45 -3 42 -17 -3 -15 -14 -18 -68 -18 l-65 0 -3 73 -3
72 66 0 c51 0 65 -3 65 -15z m133 -15 c14 -16 28 -30 31 -30 3 0 6 14 6 30 0
23 4 30 20 30 18 0 20 -7 20 -75 0 -67 -2 -75 -19 -75 -10 0 -33 16 -49 35
l-31 34 -3 -32 c-2 -24 -8 -32 -23 -32 -18 0 -20 8 -23 73 -3 71 -2 72 22 72
15 0 34 -12 49 -30z m277 10 c0 -15 -7 -20 -25 -20 -24 0 -25 -3 -25 -56 0
-52 -1 -55 -22 -52 -20 3 -23 10 -26 56 -3 43 -6 52 -21 52 -10 0 -21 9 -24
20 -5 19 0 20 69 20 67 0 74 -2 74 -20z"/>
<path d="M870 495 c0 -8 9 -15 20 -15 11 0 20 7 20 15 0 8 -9 15 -20 15 -11 0
-20 -7 -20 -15z"/>
<path d="M1070 470 c0 -34 3 -41 18 -38 24 5 24 71 0 76 -15 3 -18 -4 -18 -38z"/>
</g>
</svg>
